<?xml version="1.0" encoding="UTF-8"?>
<svg id="Layer_2" data-name="Layer 2" xmlns="http://www.w3.org/2000/svg" viewBox="0 0 412.51 493.47">
  <defs>
    <style>
      .cls-1 {
        fill: #fff;
      }
    </style>
  </defs>
  <g id="Layer_1-2" data-name="Layer 1">
    <g id="YuSFxv.tif">
      <g>
        <path class="cls-1" d="M110.45,452.22l9.28-8.68c34.14-64.45,76.2-128.63,108.04-194,1.11-2.28,3.7-6.09,3.79-8.34.17-3.81-5.1-6.21-1.48-10.64,3.11-3.81,10.5-.46,14.77-2.53,4.73-2.29,5.04-16.21,17.69-12.38,7.68,2.33,1.21,12.44,1,16.46-.49,9.56,26.4,34.44,35.11,19.11l28.7-49.94c.85-5.46-16.97-19.94-21.25-21.22-10.57-3.17-17.32,10.45-27.98,2.7-12.29-8.94,4.08-24.43-6.6-34.65-21.45-15.34-42.43-38.17-66.34-49.43-4-1.88-24.21-7.71-24.21-10.37,6.11-4.12,19.25-20.53,26.52-17.29,52.8,43.89,108.76,84.83,159.75,130.38v250.8H110.45ZM284.77,324.49h-31.94v37.25h31.94v-37.25ZM330.01,324.49h-31.94v37.25h33.27v-33.93c0-.44-1.76-2.02-1.33-3.33ZM286.1,377.71h-33.27v35.92h31.94v-32.6c0-.41,1.83-1.89,1.33-3.33ZM330.01,377.71h-31.94v35.92h31.94c-1.18-12.21,2.76-23.94,0-35.92Z"/>
        <path class="cls-1" d="M39.92,202.75c2.46-2.43,4.83-4.93,7.35-7.28,20.16-18.77,57.84-49.03,80.59-64.45,14.09-9.55,31.45-12.24,47.38-5.03,12.12,5.49,25.5,20.8,21.11,34.92-2.19,7.05-15.74,14.98-10.72,25.21,2.48,5.07,12.91,2.99,8.33,13.6-5.97,13.84-12.08,3.31-14.82,3.78-43.48,64.04-84.95,129.92-126.97,195.1-6.65,17.03-1.18,29.58,10.51,42.16l15.83,11.45h-38.59v-249.47Z"/>
        <polygon class="cls-1" points="412.51 210.07 205.6 41.53 0 211.4 0 170.15 3.31 168.87 205.79 0 212.21 3.88 412.51 170.82 412.51 210.07"/>
        <rect class="cls-1" x="34.6" y="472.18" width="339.32" height="21.29"/>
      </g>
    </g>
  </g>
</svg>