<?xml version="1.0" encoding="UTF-8"?>
<svg id="Layer_2" data-name="Layer 2" xmlns="http://www.w3.org/2000/svg" viewBox="0 0 1029.21 370.52">
  <defs>
    <style>
      .cls-1 {
        fill: #e6a12e;
      }

      .cls-2 {
        fill: #664733;
      }
    </style>
  </defs>
  <g id="Layer_1-2" data-name="Layer 1">
    <g>
      <g id="YuSFxv.tif">
        <g>
          <path class="cls-2" d="M82.93,339.55l6.97-6.52c25.63-48.39,57.22-96.58,81.12-145.66.83-1.71,2.78-4.57,2.85-6.26.13-2.86-3.83-4.66-1.11-7.99,2.34-2.86,7.88-.35,11.09-1.9,3.55-1.72,3.79-12.17,13.28-9.29,5.77,1.75.91,9.34.75,12.36-.37,7.18,19.82,25.86,26.36,14.35l21.55-37.5c.64-4.1-12.75-14.98-15.95-15.94-7.94-2.38-13.01,7.84-21.01,2.02-9.23-6.71,3.06-18.35-4.96-26.02-16.1-11.52-31.86-28.66-49.81-37.11-3.01-1.41-18.18-5.79-18.18-7.78,4.58-3.09,14.45-15.41,19.92-12.98,39.64,32.96,81.66,63.7,119.95,97.9v188.32H82.93ZM213.82,243.65h-23.98v27.97h23.98v-27.97ZM247.79,243.65h-23.98v27.97h24.98v-25.48c0-.33-1.32-1.52-1-2.5ZM214.82,283.61h-24.98v26.97h23.98v-24.48c0-.31,1.37-1.42,1-2.5ZM247.79,283.61h-23.98v26.97h23.98c-.89-9.17,2.07-17.98,0-26.97Z"/>
          <path class="cls-1" d="M29.97,152.24c1.84-1.82,3.62-3.7,5.52-5.47,15.14-14.1,43.43-36.82,60.51-48.39,10.58-7.17,23.61-9.19,35.57-3.78,9.1,4.12,19.14,15.61,15.85,26.22-1.64,5.3-11.82,11.25-8.05,18.93,1.86,3.8,9.69,2.24,6.26,10.21-4.48,10.39-9.07,2.48-11.13,2.84-32.64,48.09-63.79,97.55-95.33,146.49-4.99,12.79-.89,22.21,7.89,31.66l11.88,8.6h-28.98v-187.32Z"/>
          <polygon class="cls-2" points="309.74 157.73 154.38 31.19 0 158.73 0 127.76 2.49 126.8 154.52 0 159.34 2.91 309.74 128.26 309.74 157.73"/>
          <rect class="cls-2" x="25.98" y="354.54" width="254.78" height="15.98"/>
        </g>
      </g>
      <g>
        <g>
          <path class="cls-2" d="M332.69,140.97h24.23v66.62c0,15.65,8.58,26.41,26.08,26.41s25.74-10.77,25.74-26.41v-66.62h24.23v67.3c0,27.93-15.98,46.94-49.97,46.94s-50.3-19.18-50.3-46.77v-67.47Z"/>
          <path class="cls-2" d="M455.17,253.19v-112.22h52.49c24.4,0,37.69,16.49,37.69,36.17s-13.46,35.84-37.69,35.84h-28.6v40.21h-23.89ZM504.47,161.5h-25.4v30.96h25.4c9.42,0,16.49-6.06,16.49-15.48s-7.07-15.48-16.49-15.48Z"/>
          <path class="cls-2" d="M565.54,219.21c7.91,8.24,20.19,15.14,35.67,15.14,13.12,0,19.52-6.23,19.52-12.62,0-8.41-9.76-11.27-22.71-14.3-18.34-4.21-41.89-9.25-41.89-34.32,0-18.67,16.15-33.82,42.56-33.82,17.83,0,32.64,5.38,43.74,15.65l-13.29,17.5c-9.08-8.41-21.2-12.28-32.13-12.28s-16.49,4.71-16.49,11.44c0,7.57,9.42,9.93,22.38,12.95,18.51,4.21,42.06,9.76,42.06,34.66,0,20.53-14.64,36-44.92,36-21.54,0-37.01-7.23-47.61-17.83l13.12-18.17Z"/>
          <path class="cls-2" d="M685.84,253.19v-91.19h-32.81v-21.03h89.51v21.03h-32.64v91.19h-24.06Z"/>
          <path class="cls-2" d="M825.65,253.19l-7.07-19.35h-50.14l-7.07,19.35h-26.25l43.41-112.22h29.95l43.24,112.22h-26.08ZM793.51,161.67l-18.67,51.48h37.18l-18.51-51.48Z"/>
          <path class="cls-2" d="M877.3,253.19v-91.19h-32.81v-21.03h89.51v21.03h-32.64v91.19h-24.06Z"/>
          <path class="cls-2" d="M949.31,253.19v-112.22h79.41v20.53h-55.52v24.39h54.34v20.53h-54.34v26.08h55.52v20.69h-79.41Z"/>
        </g>
        <g>
          <path class="cls-1" d="M377.72,339v-23.32h-26.24v23.32h-11.83v-55.56h11.83v21.82h26.24v-21.82h11.91v55.56h-11.91Z"/>
          <path class="cls-1" d="M430.79,282.53c16.83,0,29.07,11.99,29.07,28.74s-12.24,28.74-29.07,28.74-28.99-12-28.99-28.74,12.24-28.74,28.99-28.74ZM430.79,293.02c-10.25,0-16.83,7.83-16.83,18.24s6.58,18.24,16.83,18.24,16.91-7.91,16.91-18.24-6.66-18.24-16.91-18.24Z"/>
          <path class="cls-1" d="M520.42,339v-39.98l-15.66,39.98h-5.16l-15.66-39.98v39.98h-11.83v-55.56h16.58l13.49,34.65,13.49-34.65h16.66v55.56h-11.91Z"/>
          <path class="cls-1" d="M547.24,339v-55.56h39.32v10.16h-27.49v12.08h26.91v10.16h-26.91v12.91h27.49v10.25h-39.32Z"/>
          <path class="cls-1" d="M656.36,339l-10.91-19.91h-8.66v19.91h-11.83v-55.56h25.99c11.58,0,18.66,7.58,18.66,17.91s-6.16,15.08-12.16,16.49l12.5,21.16h-13.58ZM649.2,293.6h-12.41v15.33h12.41c4.75,0,8.33-3,8.33-7.66s-3.58-7.66-8.33-7.66Z"/>
          <path class="cls-1" d="M682.44,339v-55.56h39.32v10.16h-27.49v12.08h26.91v10.16h-26.91v12.91h27.49v10.25h-39.32Z"/>
          <path class="cls-1" d="M783.23,339v-39.98l-15.66,39.98h-5.16l-15.66-39.98v39.98h-11.83v-55.56h16.58l13.49,34.65,13.49-34.65h16.66v55.56h-11.91Z"/>
          <path class="cls-1" d="M836.37,282.53c16.83,0,29.07,11.99,29.07,28.74s-12.25,28.74-29.07,28.74-28.99-12-28.99-28.74,12.25-28.74,28.99-28.74ZM836.37,293.02c-10.25,0-16.83,7.83-16.83,18.24s6.58,18.24,16.83,18.24,16.91-7.91,16.91-18.24-6.66-18.24-16.91-18.24Z"/>
          <path class="cls-1" d="M877.69,339v-55.56h21.91c17.41,0,29.49,11.08,29.49,27.82s-12.08,27.74-29.49,27.74h-21.91ZM889.52,328.59h10.08c11,0,17.41-7.91,17.41-17.33s-6-17.41-17.41-17.41h-10.08v34.74Z"/>
          <path class="cls-1" d="M941.41,339v-55.56h39.32v10.16h-27.49v12.08h26.91v10.16h-26.91v12.91h27.49v10.25h-39.32Z"/>
          <path class="cls-1" d="M993.89,339v-55.56h11.83v45.15h23.49v10.41h-35.32Z"/>
        </g>
      </g>
    </g>
  </g>
</svg>