<?xml version="1.0" encoding="UTF-8"?>
<svg id="Layer_2" data-name="Layer 2" xmlns="http://www.w3.org/2000/svg" viewBox="0 0 242 180.32">
  <defs>
    <style>
      .cls-1 {
        fill: #664733;
      }
    </style>
  </defs>
  <g id="Layer_1-2" data-name="Layer 1">
    <g id="_4BBfpw.tif" data-name="4BBfpw.tif">
      <g>
        <path class="cls-1" d="M229.82,0c6.03,2.76,9.93,6.67,10.87,13.55,1.99,14.6,1.48,53.5.13,68.76-.6,6.73-6.18,15.41-13.48,15.41h-46.31s0,20.44,0,20.44c0,.4,3.34,6.1,3.99,6.98,5.68,7.75,17.85,13.76,26.62,17.22,6.62,2.61,23.92,5.78,27.16,10.7,4.49,6.81,3.96,26.49-7.73,27.18s-30.18-2.56-41.49-5.82c-77.58-22.33-48.99-99.94-54.27-160.87C136.5,6.6,139.91,2.82,146.16,0h83.65ZM150.15,114.17c0,1.22,2.34,9.17,2.96,11,10.02,29.54,44.34,39.72,72.72,39.35,2.76-2.4-12.96-5.77-14.2-6.22-31.39-11.41-50.44-26.35-45.46-62.99.58-4.25,6.09-12.55,10.37-12.55h49.3s0-67.8,0-67.8h-75.69s0,99.21,0,99.21Z"/>
        <path class="cls-1" d="M11.72,0C7.25,2.42,2.96,4.84,1.43,10.14.12,14.7-.2,35.67,3,38.63c2.32,2.14,7.43,2.09,10,.3.36-.25,2.7-3.31,2.7-3.53V14.96h75.69v67.8h-49.3c-3.76,0-9.81,7.73-10.39,11.53-4.93,31.93,8.28,48.34,36.11,60.44,6.78,2.95,14.11,4.53,20.86,7.07,1.17.44,3.37.37,2.71,2.21-.55,1.55-9.43.57-11.32.39-28.78-2.79-60.42-17.3-64.08-49.51-1.69-14.83,1.86-33.6-.33-47.53-1.37-8.67-12.85-8.95-14.67-.84-1.61,7.15-.88,37.11-.25,45.7,3.21,43.47,40.71,63.85,80.22,67.26,3.46.3,12.77,1.04,15.69.79,12.88-1.08,12.54-25.81,4.08-30.56-14.21-4.51-30.5-7.98-42.52-17.26-2.94-2.27-11.62-10.81-11.62-14.29v-20.44h46.31c.36,0,5.16-1.73,5.85-2.12,5.7-3.25,7.16-9.16,7.63-15.29,1.25-16.04,1.73-50.2-.15-65.74C105.26,6.7,101.87,3.69,95.37,0H11.72Z"/>
      </g>
    </g>
  </g>
</svg>