<?xml version="1.0" encoding="UTF-8"?>
<svg id="Layer_2" data-name="Layer 2" xmlns="http://www.w3.org/2000/svg" viewBox="0 0 660 628">
  <defs>
    <style>
      .cls-1 {
        fill: #e09015;
      }

      .cls-2 {
        fill: #553e26;
      }
    </style>
  </defs>
  <g id="Layer_1-2" data-name="Layer 1">
    <g>
      <path class="cls-2" d="M660,276L335,0h-8L0,280l24,35,31-7v275l-26,7v35l587,3,4-35,13-19,2-21-29-40v-202l6-6,26,10,22-28v-11Z"/>
      <path class="cls-1" d="M424,489v41l59-1-1-3-32-35-6-3-20,1Z"/>
      <path class="cls-1" d="M93,495v27l1,3,6,5h135v-41l-2-2H101l-3,1-5,7Z"/>
      <path class="cls-1" d="M499,406l42,41,7,2h9l10-5,2-4v-27l-4-6-4-2-62,1Z"/>
      <path class="cls-1" d="M94,411v30l1,3,5,4,134,1v-44H102l-5,2-3,4Z"/>
      <path class="cls-1" d="M310,403l-14,8-9,9-6,10-4,13v141h108l-1-140-3-11-8-14-9-9-13-7-17-4-14,1-10,3Z"/>
      <path class="cls-1" d="M569,358v-25l-5-7-6-2-144,1,42,40,6,2h98l5-2,4-7Z"/>
      <path class="cls-1" d="M96,331v28l1,3,7,5h79v-3l-35-30-7-10h-37l-4,2-4,5Z"/>
      <path class="cls-1" d="M197,366l140-2-28-33-29-29-9-6-13-1-15,12-4,5-1,10-41,44Z"/>
      <path class="cls-1" d="M308,296l255,288,8,5,17-3,22-25,1-11-5-9-265-255-12-9-21,19Z"/>
      <path class="cls-1" d="M81,269l104,2,22-18,13-36,62-50,45-18,47-2,25,9,8,16-50,14-21,14-15,20,2,10,42,46,214,3,5-6-3-7L332,57l-251,212Z"/>
    </g>
  </g>
</svg>