<?xml version="1.0" encoding="UTF-8"?>
<svg id="Layer_2" data-name="Layer 2" xmlns="http://www.w3.org/2000/svg" viewBox="0 0 1473.42 313.39">
  <defs>
    <style>
      .cls-1 {
        fill: #e09015;
      }

      .cls-2 {
        fill: #553e26;
      }
    </style>
  </defs>
  <g id="Layer_1-2" data-name="Layer 1">
    <g>
      <g>
        <path class="cls-2" d="M329.36,137.73L167.18,0h-3.99L0,139.73l11.98,17.47,15.47-3.49v137.23l-12.97,3.49v17.47l292.93,1.5,2-17.47,6.49-9.48,1-10.48-14.47-19.96v-100.8l2.99-2.99,12.97,4.99,10.98-13.97v-5.49Z"/>
        <path class="cls-1" d="M211.59,244.03v20.46l29.44-.5-.5-1.5-15.97-17.47-2.99-1.5-9.98.5Z"/>
        <path class="cls-1" d="M46.41,247.02v13.47l.5,1.5,2.99,2.5h67.37v-20.46l-1-1H50.4l-1.5.5-2.5,3.49Z"/>
        <path class="cls-1" d="M249.02,202.61l20.96,20.46,3.49,1h4.49l4.99-2.5,1-2v-13.47l-2-2.99-2-1-30.94.5Z"/>
        <path class="cls-1" d="M46.91,205.1v14.97l.5,1.5,2.5,2,66.87.5v-21.96H50.9l-2.5,1-1.5,2Z"/>
        <path class="cls-1" d="M154.7,201.11l-6.99,3.99-4.49,4.49-2.99,4.99-2,6.49v70.36h53.9l-.5-69.86-1.5-5.49-3.99-6.99-4.49-4.49-6.49-3.49-8.48-2-6.99.5-4.99,1.5Z"/>
        <path class="cls-1" d="M283.95,178.65v-12.48l-2.5-3.49-2.99-1-71.86.5,20.96,19.96,2.99,1h48.91l2.5-1,2-3.49Z"/>
        <path class="cls-1" d="M47.91,165.18v13.97l.5,1.5,3.49,2.5h39.42v-1.5l-17.47-14.97-3.49-4.99h-18.46l-2,1-2,2.5Z"/>
        <path class="cls-1" d="M98.31,182.65l69.86-1-13.97-16.47-14.47-14.47-4.49-2.99-6.49-.5-7.49,5.99-2,2.5-.5,4.99-20.46,21.96Z"/>
        <path class="cls-1" d="M153.7,147.71l127.25,143.72,3.99,2.5,8.48-1.5,10.98-12.48.5-5.49-2.5-4.49-132.24-127.25-5.99-4.49-10.48,9.48Z"/>
        <path class="cls-1" d="M40.42,134.24l51.9,1,10.98-8.98,6.49-17.97,30.94-24.95,22.46-8.98,23.45-1,12.48,4.49,3.99,7.98-24.95,6.99-10.48,6.99-7.49,9.98,1,4.99,20.96,22.96,106.79,1.5,2.5-2.99-1.5-3.49L165.68,28.44l-125.26,105.8Z"/>
      </g>
      <g>
        <g>
          <path class="cls-2" d="M378.51,204.64v-103.38h26.66v80.13h41.54v23.25h-68.2Z"/>
          <path class="cls-2" d="M460.5,204.64v-103.38h26.66v103.38h-26.66Z"/>
          <path class="cls-2" d="M576.13,204.64l-43.71-62.46v62.46h-26.66v-103.38h27.44l41.85,59.52v-59.52h26.81v103.38h-25.73Z"/>
          <path class="cls-2" d="M615.19,153.02c0-31.93,24.18-53.47,55.18-53.47,25.73,0,39.06,14.1,45.88,27.75l-22.94,10.85c-3.41-8.21-12.25-15.03-22.94-15.03-16.12,0-28.05,13.02-28.05,29.91s11.94,29.92,28.05,29.92c10.69,0,19.53-6.82,22.94-15.04l22.94,10.85c-6.67,13.33-20.15,27.74-45.88,27.74-31,0-55.18-21.7-55.18-53.47Z"/>
          <path class="cls-2" d="M777.78,99.55c31.62,0,55.18,22.01,55.18,53.47s-23.56,53.47-55.18,53.47-55.33-22.01-55.33-53.47,23.71-53.47,55.33-53.47ZM777.78,123.11c-17.21,0-28.21,13.02-28.21,29.91s11,29.92,28.21,29.92,28.05-13.17,28.05-29.92-11-29.91-28.05-29.91Z"/>
          <path class="cls-2" d="M846.45,204.64v-103.38h26.66v80.13h41.54v23.25h-68.2Z"/>
          <path class="cls-2" d="M998.81,204.64l-43.71-62.46v62.46h-26.66v-103.38h27.43l41.85,59.52v-59.52h26.82v103.38h-25.73Z"/>
          <path class="cls-2" d="M1082.82,204.64v-103.38h26.66v80.13h41.54v23.25h-68.2Z"/>
          <path class="cls-2" d="M1211.16,99.55c31.62,0,55.18,22.01,55.18,53.47s-23.56,53.47-55.18,53.47-55.33-22.01-55.33-53.47,23.71-53.47,55.33-53.47ZM1211.16,123.11c-17.21,0-28.21,13.02-28.21,29.91s11,29.92,28.21,29.92,28.05-13.17,28.05-29.92-11-29.91-28.05-29.91Z"/>
          <path class="cls-2" d="M1330.51,99.55c22.63,0,36.58,11.16,44.17,24.02l-22.32,11.78c-4.18-6.82-12.09-12.24-21.85-12.24-16.89,0-28.83,13.02-28.83,29.91s11.94,29.92,28.83,29.92c8.06,0,15.34-2.79,19.53-6.2v-8.68h-23.71v-22.17h49.91v40.45c-11.16,12.25-26.19,20.15-45.72,20.15-30.84,0-55.95-20.61-55.95-53.47s25.11-53.47,55.95-53.47Z"/>
          <path class="cls-2" d="M1398.55,170.07c7.44,7.44,18.91,13.64,33.01,13.64,9.15,0,14.72-3.88,14.72-8.83,0-5.89-6.67-8.21-17.67-10.54-17.05-3.41-40.92-7.75-40.92-32.24,0-17.36,14.72-32.39,41.23-32.39,16.58,0,31,4.96,42,14.42l-14.57,19.06c-8.68-7.13-20-10.69-29.14-10.69s-12.25,3.56-12.25,8.06c0,5.42,6.36,7.28,17.83,9.46,17.05,3.56,40.61,8.52,40.61,31.93,0,20.77-15.34,34.56-43.09,34.56-20.92,0-35.49-6.51-45.88-16.43l14.1-20Z"/>
        </g>
        <g>
          <path class="cls-1" d="M426.94,283.32h-35.79v28.91h-9.7v-64.7h9.7v27.16h35.79v-27.16h9.7v64.7h-9.7v-28.91Z"/>
          <path class="cls-1" d="M491.93,298.84h-31.72l-5.24,13.39h-10.67l25.71-64.7h12.12l25.71,64.7h-10.67l-5.24-13.39ZM463.03,290.21h26.09l-13.09-34.24-13,34.24Z"/>
          <path class="cls-1" d="M525.3,262.56v49.66h-9.7v-64.7h9.99l35.21,48.5v-48.5h9.7v64.7h-9.41l-35.79-49.66Z"/>
          <path class="cls-1" d="M584.86,247.53h23.09c20.18,0,33.56,13.77,33.56,32.4s-13.39,32.3-33.56,32.3h-23.09v-64.7ZM607.94,303.69c14.94,0,23.57-10.67,23.57-23.77s-8.34-23.86-23.57-23.86h-13.39v47.63h13.39Z"/>
          <path class="cls-1" d="M667.99,285.17l-25.32-37.64h11.16l19.01,28.91,18.82-28.91h11.25l-25.22,37.64v27.06h-9.7v-27.06Z"/>
          <path class="cls-1" d="M766.34,260.82l-20.95,51.41h-4.07l-20.95-51.41v51.41h-9.7v-64.7h13.87l18.82,46.46,18.82-46.46h13.87v64.7h-9.7v-51.41Z"/>
          <path class="cls-1" d="M831.33,298.84h-31.72l-5.24,13.39h-10.67l25.71-64.7h12.12l25.71,64.7h-10.67l-5.24-13.39ZM802.43,290.21h26.09l-13.09-34.24-13,34.24Z"/>
          <path class="cls-1" d="M864.7,262.56v49.66h-9.7v-64.7h9.99l35.21,48.5v-48.5h9.7v64.7h-9.41l-35.79-49.66Z"/>
          <path class="cls-1" d="M950.83,295.64c4.36,4.85,11.35,9.12,20.37,9.12,10.48,0,14.16-5.33,14.16-9.99,0-6.79-7.37-8.73-15.62-10.86-10.38-2.72-22.41-5.72-22.41-18.92,0-10.67,9.41-18.43,22.89-18.43,9.99,0,17.85,3.2,23.57,9.02l-5.63,7.18c-4.95-5.24-11.74-7.57-18.72-7.57s-12.12,3.69-12.12,9.12c0,5.82,6.98,7.66,15.03,9.7,10.57,2.81,22.89,6.11,22.89,19.89,0,10.09-6.98,19.5-24.44,19.5-11.54,0-19.98-4.17-25.51-10.28l5.53-7.47Z"/>
          <path class="cls-1" d="M1006.51,247.53h43.46v8.54h-33.76v18.92h33.08v8.54h-33.08v20.18h33.76v8.54h-43.46v-64.7Z"/>
          <path class="cls-1" d="M1083.92,287.3h-12.12v24.93h-9.7v-64.7h27.26c12.32,0,20.76,7.95,20.76,19.89s-7.86,17.85-16.1,18.92l16.59,25.9h-11.25l-15.42-24.93ZM1088.09,256.07h-16.3v22.7h16.3c6.98,0,12.03-4.56,12.03-11.35s-5.04-11.35-12.03-11.35Z"/>
          <path class="cls-1" d="M1114.38,247.53h11.06l20.66,54.13,20.76-54.13h11.06l-25.71,64.7h-12.12l-25.71-64.7Z"/>
          <path class="cls-1" d="M1185.67,247.53h9.7v64.7h-9.7v-64.7Z"/>
          <path class="cls-1" d="M1207.1,279.93c0-19.88,14.74-33.46,33.17-33.46,12.71,0,20.66,6.11,25.71,13.68l-8.25,4.36c-3.39-5.43-9.8-9.41-17.46-9.41-13.09,0-23.18,10.28-23.18,24.83s10.09,24.83,23.18,24.83c7.66,0,14.07-3.98,17.46-9.41l8.25,4.36c-5.14,7.57-13,13.68-25.71,13.68-18.43,0-33.17-13.58-33.17-33.47Z"/>
          <path class="cls-1" d="M1275.68,247.53h43.46v8.54h-33.76v18.92h33.08v8.54h-33.08v20.18h33.76v8.54h-43.46v-64.7Z"/>
          <path class="cls-1" d="M1332.82,295.64c4.36,4.85,11.35,9.12,20.37,9.12,10.48,0,14.16-5.33,14.16-9.99,0-6.79-7.37-8.73-15.62-10.86-10.38-2.72-22.41-5.72-22.41-18.92,0-10.67,9.41-18.43,22.89-18.43,9.99,0,17.85,3.2,23.57,9.02l-5.63,7.18c-4.95-5.24-11.74-7.57-18.72-7.57s-12.12,3.69-12.12,9.12c0,5.82,6.98,7.66,15.03,9.7,10.57,2.81,22.89,6.11,22.89,19.89,0,10.09-6.98,19.5-24.44,19.5-11.54,0-19.98-4.17-25.51-10.28l5.53-7.47Z"/>
        </g>
      </g>
    </g>
  </g>
</svg>