<?xml version="1.0" encoding="UTF-8"?>
<svg id="Layer_2" data-name="Layer 2" xmlns="http://www.w3.org/2000/svg" viewBox="0 0 1473.41 313.39">
  <defs>
    <style>
      .cls-1 {
        fill: #d8d8d8;
      }

      .cls-2 {
        fill: #fff;
      }
    </style>
  </defs>
  <g id="Layer_1-2" data-name="Layer 1">
    <g>
      <g>
        <path class="cls-2" d="M329.36,137.73L167.18,0h-3.99L0,139.73l11.98,17.47,15.47-3.49v137.23l-12.97,3.49v17.47l292.93,1.5,2-17.47,6.49-9.48,1-10.48-14.47-19.96v-100.8l2.99-2.99,12.97,4.99,10.98-13.97v-5.49Z"/>
        <path class="cls-1" d="M211.59,244.03v20.46l29.44-.5-.5-1.5-15.97-17.47-2.99-1.5-9.98.5Z"/>
        <path class="cls-1" d="M46.41,247.02v13.47l.5,1.5,2.99,2.5h67.37v-20.46l-1-1H50.4l-1.5.5-2.5,3.49Z"/>
        <path class="cls-1" d="M249.02,202.61l20.96,20.46,3.49,1h4.49l4.99-2.5,1-2v-13.47l-2-2.99-2-1-30.94.5Z"/>
        <path class="cls-1" d="M46.91,205.1v14.97l.5,1.5,2.5,2,66.87.5v-21.96H50.9l-2.5,1-1.5,2Z"/>
        <path class="cls-1" d="M154.7,201.11l-6.99,3.99-4.49,4.49-2.99,4.99-2,6.49v70.36h53.9l-.5-69.86-1.5-5.49-3.99-6.99-4.49-4.49-6.49-3.49-8.48-2-6.99.5-4.99,1.5Z"/>
        <path class="cls-1" d="M283.95,178.65v-12.48l-2.5-3.49-2.99-1-71.86.5,20.96,19.96,2.99,1h48.91l2.5-1,2-3.49Z"/>
        <path class="cls-1" d="M47.91,165.18v13.97l.5,1.5,3.49,2.5h39.42v-1.5l-17.47-14.97-3.49-4.99h-18.46l-2,1-2,2.5Z"/>
        <path class="cls-1" d="M98.31,182.65l69.86-1-13.97-16.47-14.47-14.47-4.49-2.99-6.49-.5-7.49,5.99-2,2.5-.5,4.99-20.46,21.96Z"/>
        <path class="cls-1" d="M153.7,147.71l127.25,143.72,3.99,2.5,8.48-1.5,10.98-12.48.5-5.49-2.5-4.49-132.24-127.25-5.99-4.49-10.48,9.48Z"/>
        <path class="cls-1" d="M40.42,134.24l51.9,1,10.98-8.98,6.49-17.97,30.94-24.95,22.46-8.98,23.45-1,12.48,4.49,3.99,7.98-24.95,6.99-10.48,6.99-7.49,9.98,1,4.99,20.96,22.96,106.79,1.5,2.5-2.99-1.5-3.49L165.68,28.44l-125.26,105.8Z"/>
      </g>
      <g>
        <g>
          <path class="cls-2" d="M378.51,204.42v-103.38h26.66v80.13h41.54v23.25h-68.2Z"/>
          <path class="cls-2" d="M460.5,204.42v-103.38h26.66v103.38h-26.66Z"/>
          <path class="cls-2" d="M576.13,204.42l-43.71-62.46v62.46h-26.66v-103.38h27.44l41.85,59.52v-59.52h26.81v103.38h-25.73Z"/>
          <path class="cls-2" d="M615.19,152.81c0-31.93,24.18-53.47,55.18-53.47,25.73,0,39.06,14.1,45.88,27.75l-22.94,10.85c-3.41-8.21-12.25-15.03-22.94-15.03-16.12,0-28.05,13.02-28.05,29.91s11.94,29.92,28.05,29.92c10.69,0,19.53-6.82,22.94-15.04l22.94,10.85c-6.67,13.33-20.15,27.74-45.88,27.74-31,0-55.18-21.7-55.18-53.47Z"/>
          <path class="cls-2" d="M777.78,99.33c31.62,0,55.18,22.01,55.18,53.47s-23.56,53.47-55.18,53.47-55.33-22.01-55.33-53.47,23.71-53.47,55.33-53.47ZM777.78,122.89c-17.21,0-28.21,13.02-28.21,29.91s11,29.92,28.21,29.92,28.05-13.17,28.05-29.92-11-29.91-28.05-29.91Z"/>
          <path class="cls-2" d="M846.45,204.42v-103.38h26.66v80.13h41.54v23.25h-68.2Z"/>
          <path class="cls-2" d="M998.81,204.42l-43.71-62.46v62.46h-26.66v-103.38h27.43l41.85,59.52v-59.52h26.82v103.38h-25.73Z"/>
          <path class="cls-2" d="M1082.82,204.42v-103.38h26.66v80.13h41.54v23.25h-68.2Z"/>
          <path class="cls-2" d="M1211.16,99.33c31.62,0,55.18,22.01,55.18,53.47s-23.56,53.47-55.18,53.47-55.33-22.01-55.33-53.47,23.71-53.47,55.33-53.47ZM1211.16,122.89c-17.21,0-28.21,13.02-28.21,29.91s11,29.92,28.21,29.92,28.05-13.17,28.05-29.92-11-29.91-28.05-29.91Z"/>
          <path class="cls-2" d="M1330.51,99.33c22.63,0,36.58,11.16,44.17,24.02l-22.32,11.78c-4.18-6.82-12.09-12.24-21.85-12.24-16.89,0-28.83,13.02-28.83,29.91s11.94,29.92,28.83,29.92c8.06,0,15.34-2.79,19.53-6.2v-8.68h-23.71v-22.17h49.91v40.45c-11.16,12.25-26.19,20.15-45.72,20.15-30.84,0-55.95-20.61-55.95-53.47s25.11-53.47,55.95-53.47Z"/>
          <path class="cls-2" d="M1398.55,169.86c7.44,7.44,18.91,13.64,33.01,13.64,9.15,0,14.72-3.88,14.72-8.83,0-5.89-6.67-8.21-17.67-10.54-17.05-3.41-40.92-7.75-40.92-32.24,0-17.36,14.72-32.39,41.23-32.39,16.58,0,31,4.96,42,14.42l-14.57,19.06c-8.68-7.13-20-10.69-29.14-10.69s-12.25,3.56-12.25,8.06c0,5.42,6.36,7.28,17.83,9.46,17.05,3.56,40.61,8.52,40.61,31.93,0,20.77-15.34,34.56-43.09,34.56-20.92,0-35.49-6.51-45.88-16.43l14.1-20Z"/>
        </g>
        <g>
          <path class="cls-2" d="M436.72,277.74h-42.44v34.27h-11.5v-76.71h11.5v32.2h42.44v-32.2h11.5v76.71h-11.5v-34.27Z"/>
          <path class="cls-2" d="M500.66,234.04c22.89,0,38.64,16.91,38.64,39.68s-15.76,39.68-38.64,39.68-38.64-16.91-38.64-39.68,15.76-39.68,38.64-39.68ZM500.66,244.28c-16.45,0-26.8,12.54-26.8,29.44s10.35,29.44,26.8,29.44,26.8-12.65,26.8-29.44-10.58-29.44-26.8-29.44Z"/>
          <path class="cls-2" d="M619.23,251.06l-24.84,60.95h-4.83l-24.84-60.95v60.95h-11.5v-76.71h16.45l22.31,55.09,22.31-55.09h16.45v76.71h-11.5v-60.95Z"/>
          <path class="cls-2" d="M647.74,235.31h51.52v10.12h-40.02v22.43h39.22v10.12h-39.22v23.92h40.02v10.12h-51.52v-76.71Z"/>
          <path class="cls-2" d="M745.15,292.35c5.18,5.75,13.46,10.81,24.15,10.81,12.42,0,16.79-6.33,16.79-11.85,0-8.05-8.74-10.35-18.52-12.88-12.31-3.22-26.57-6.79-26.57-22.43,0-12.65,11.16-21.85,27.14-21.85,11.85,0,21.16,3.8,27.95,10.7l-6.67,8.51c-5.87-6.21-13.92-8.97-22.2-8.97s-14.38,4.37-14.38,10.81c0,6.9,8.28,9.09,17.83,11.5,12.54,3.33,27.14,7.25,27.14,23.58,0,11.96-8.28,23.12-28.98,23.12-13.69,0-23.69-4.94-30.25-12.19l6.56-8.86Z"/>
          <path class="cls-2" d="M811.16,235.31h51.52v10.12h-40.02v22.43h39.22v10.12h-39.22v23.92h40.02v10.12h-51.52v-76.71Z"/>
          <path class="cls-2" d="M902.93,282.46h-14.38v29.56h-11.5v-76.71h32.32c14.61,0,24.61,9.43,24.61,23.58s-9.32,21.16-19.09,22.43l19.67,30.71h-13.34l-18.29-29.56ZM907.87,245.43h-19.32v26.91h19.32c8.28,0,14.26-5.41,14.26-13.46s-5.98-13.46-14.26-13.46Z"/>
          <path class="cls-2" d="M939.04,235.31h13.11l24.5,64.17,24.61-64.17h13.11l-30.48,76.71h-14.38l-30.48-76.71Z"/>
          <path class="cls-2" d="M1023.56,235.31h11.5v76.71h-11.5v-76.71Z"/>
          <path class="cls-2" d="M1048.97,273.72c0-23.58,17.48-39.68,39.33-39.68,15.07,0,24.5,7.25,30.48,16.22l-9.78,5.18c-4.03-6.44-11.62-11.16-20.7-11.16-15.53,0-27.49,12.19-27.49,29.44s11.96,29.44,27.49,29.44c9.09,0,16.68-4.71,20.7-11.16l9.78,5.17c-6.1,8.97-15.41,16.22-30.48,16.22-21.85,0-39.33-16.1-39.33-39.68Z"/>
          <path class="cls-2" d="M1130.28,235.31h51.52v10.12h-40.02v22.43h39.22v10.12h-39.22v23.92h40.02v10.12h-51.52v-76.71Z"/>
          <path class="cls-2" d="M1198.01,292.35c5.17,5.75,13.46,10.81,24.15,10.81,12.42,0,16.79-6.33,16.79-11.85,0-8.05-8.74-10.35-18.52-12.88-12.31-3.22-26.57-6.79-26.57-22.43,0-12.65,11.16-21.85,27.14-21.85,11.85,0,21.16,3.8,27.95,10.7l-6.67,8.51c-5.87-6.21-13.92-8.97-22.2-8.97s-14.38,4.37-14.38,10.81c0,6.9,8.28,9.09,17.83,11.5,12.54,3.33,27.14,7.25,27.14,23.58,0,11.96-8.28,23.12-28.98,23.12-13.69,0-23.69-4.94-30.25-12.19l6.56-8.86Z"/>
        </g>
      </g>
    </g>
  </g>
</svg>